<svg width="601" height="601" viewBox="0 0 601 601" fill="none" xmlns="http://www.w3.org/2000/svg">
<path style="mix-blend-mode:screen" d="M557.342 377.032C517.153 418.996 507.819 277.616 414.707 188.435C321.596 99.2539 179.984 96.0469 220.133 54.0833C260.281 12.1198 411.582 5.35103 504.707 94.5458C597.832 183.741 597.532 335.123 557.342 377.032Z" fill="url(#paint0_radial_119_329)"/>
<path id="bubble-N" style="mix-blend-mode:screen" d="M0.434832 300.065C0.434825 466.026 134.973 600.565 300.935 600.565C466.896 600.565 601.435 466.026 601.435 300.065C601.435 134.103 466.896 -0.435064 300.935 -0.435072C134.973 -0.435079 0.434839 134.103 0.434832 300.065Z" fill="url(#paint1_radial_119_329)"/>
<path style="mix-blend-mode:screen" d="M551.802 288.52C551.802 288.52 524.235 185.747 443.611 119.478C362.986 53.2101 259.804 48.5157 259.804 48.5157C259.804 48.5157 387.932 25.8895 468.598 92.1851C549.263 158.481 551.802 288.52 551.802 288.52Z" fill="url(#paint2_radial_119_329)"/>
<path style="mix-blend-mode:screen" d="M316.083 581.61C316.083 581.61 223.626 557.673 143.125 491.255C62.6227 424.836 24.5484 341.059 24.5484 341.059C24.5484 341.059 48.7713 444.651 129.273 511.083C209.775 577.516 316.083 581.61 316.083 581.61Z" fill="url(#paint3_radial_119_329)"/>
<path style="mix-blend-mode:screen" d="M465.913 168.155C479.796 192.201 502.992 204.799 517.724 196.294C532.456 187.788 533.144 161.4 519.261 137.355C505.378 113.309 482.181 100.711 467.45 109.216C452.718 117.721 452.03 144.109 465.913 168.155Z" fill="url(#paint4_radial_119_329)"/>
<path style="mix-blend-mode:screen" d="M409.679 132.861C447.341 149.519 485.523 145.724 494.962 124.384C504.401 103.044 481.521 72.2404 443.859 55.5824C406.197 38.9244 368.015 42.7198 358.576 64.0597C349.137 85.3995 372.017 116.203 409.679 132.861Z" fill="url(#paint5_radial_119_329)"/>
<path style="mix-blend-mode:screen" d="M169.467 566.615C207.129 583.273 244.745 580.757 253.486 560.996C262.227 541.234 238.781 511.711 201.119 495.053C163.457 478.395 125.841 480.91 117.1 500.672C108.36 520.433 131.805 549.957 169.467 566.615Z" fill="url(#paint6_radial_119_329)"/>
<path style="mix-blend-mode:screen" d="M456.456 505.42C475.129 517.238 511.181 493.771 536.981 453.007C562.782 412.242 568.56 369.615 549.887 357.797C531.215 345.979 495.163 369.445 469.362 410.21C443.562 450.975 437.784 493.602 456.456 505.42Z" fill="url(#paint7_radial_119_329)"/>
<path style="mix-blend-mode:screen" d="M57.4677 237.824C71.5157 247.734 102.253 228.338 126.122 194.502C149.99 160.666 157.952 125.203 143.904 115.293C129.856 105.384 99.1181 124.78 75.2494 158.616C51.3808 192.451 43.4197 227.914 57.4677 237.824Z" fill="url(#paint8_radial_119_329)"/>
<path style="mix-blend-mode:screen" d="M382.397 545.937C396.984 562.535 438.187 550.174 474.425 518.327C510.663 486.48 528.214 447.207 513.626 430.608C499.039 414.009 457.836 426.37 421.598 458.217C385.36 490.064 367.809 529.338 382.397 545.937Z" fill="url(#paint9_radial_119_329)"/>
<defs>
<radialGradient id="paint0_radial_119_329" cx="0" cy="0" r="1" gradientUnits="userSpaceOnUse" gradientTransform="translate(467.818 129.651) rotate(43.575) scale(299.758 134.211)">
<stop stop-color="white"/>
<stop offset="1" stop-color="white" stop-opacity="0"/>
</radialGradient>
<radialGradient id="paint1_radial_119_329" cx="0" cy="0" r="1" gradientUnits="userSpaceOnUse" gradientTransform="translate(300.79 299.996) rotate(45) scale(343.95)">
<stop offset="0.33771" stop-color="white" stop-opacity="0"/>
<stop offset="1" stop-color="white" stop-opacity="0.2"/>
</radialGradient>
<radialGradient id="paint2_radial_119_329" cx="0" cy="0" r="1" gradientUnits="userSpaceOnUse" gradientTransform="translate(455.513 133.131) rotate(39.7323) scale(207.566 85.4695)">
<stop stop-color="white"/>
<stop offset="1" stop-color="white" stop-opacity="0"/>
</radialGradient>
<radialGradient id="paint3_radial_119_329" cx="0" cy="0" r="1" gradientUnits="userSpaceOnUse" gradientTransform="translate(139.055 532.085) rotate(35.5458) scale(148.645 31.3644)">
<stop stop-color="white"/>
<stop offset="0.01" stop-color="#FBFBFB"/>
<stop offset="1" stop-color="white" stop-opacity="0"/>
</radialGradient>
<radialGradient id="paint4_radial_119_329" cx="0" cy="0" r="1" gradientUnits="userSpaceOnUse" gradientTransform="translate(497.923 149.775) rotate(-34.6052) scale(24.3514 36.2402)">
<stop stop-color="white"/>
<stop offset="1" stop-color="white" stop-opacity="0"/>
</radialGradient>
<radialGradient id="paint5_radial_119_329" cx="0" cy="0" r="1" gradientUnits="userSpaceOnUse" gradientTransform="translate(426.28 95.2581) rotate(122.005) scale(56.1664 56.8429)">
<stop stop-color="white"/>
<stop offset="1" stop-color="white" stop-opacity="0.2"/>
</radialGradient>
<radialGradient id="paint6_radial_119_329" cx="0" cy="0" r="1" gradientUnits="userSpaceOnUse" gradientTransform="translate(188.552 523.787) rotate(-71.5128) scale(30.969 53.6876)">
<stop stop-color="white"/>
<stop offset="1" stop-color="white" stop-opacity="0"/>
</radialGradient>
<radialGradient id="paint7_radial_119_329" cx="0" cy="0" r="1" gradientUnits="userSpaceOnUse" gradientTransform="translate(512.5 417) rotate(-58.9649) scale(68.8567 28.9287)">
<stop stop-color="white"/>
<stop offset="1" stop-color="white" stop-opacity="0"/>
</radialGradient>
<radialGradient id="paint8_radial_119_329" cx="0" cy="0" r="1" gradientUnits="userSpaceOnUse" gradientTransform="translate(109.305 164.434) rotate(-55.9737) scale(59.0972 22.5066)">
<stop stop-color="white"/>
<stop offset="1" stop-color="white" stop-opacity="0"/>
</radialGradient>
<radialGradient id="paint9_radial_119_329" cx="0" cy="0" r="1" gradientUnits="userSpaceOnUse" gradientTransform="translate(461.077 476.883) rotate(-42.6049) scale(68.8567 28.9287)">
<stop stop-color="white"/>
<stop offset="1" stop-color="white" stop-opacity="0"/>
</radialGradient>
</defs>
</svg>