<svg width="25" height="25" viewBox="0 0 25 25" fill="none" xmlns="http://www.w3.org/2000/svg">
<g clip-path="url(#clip0_59_2457)">
<path d="M12.832 24.5033C19.4594 24.5033 24.832 19.1307 24.832 12.5033C24.832 5.87585 19.4594 0.503265 12.832 0.503265C6.20461 0.503265 0.832031 5.87585 0.832031 12.5033C0.832031 19.1307 6.20461 24.5033 12.832 24.5033Z" fill="#88C9F9"/>
<path d="M20.9187 16.3353C20.2407 16.0753 20.3613 16.1699 19.9433 15.2813C19.5253 14.3933 19.272 14.1073 18.332 14.0033C17.3913 13.8999 17.4267 13.9733 17.1653 13.5033C16.904 13.0326 15.844 13.6306 15.1653 13.8926C14.4847 14.1539 14.6527 14.7233 14.4433 14.6699C13.9834 14.5633 13.5526 14.3569 13.1813 14.0653C12.6587 13.6466 13.57 13.3199 13.832 13.0593C14.094 12.7973 13.3387 12.9399 13.0767 12.7819C12.8147 12.6259 12.346 13.0959 11.928 12.6766C11.5093 12.2586 11.7713 11.6313 11.7193 11.1086C11.6667 10.5853 12.398 10.4813 12.8687 10.3766C13.3387 10.2726 13.704 10.3773 13.704 11.0039C13.704 11.6313 14.2793 11.8406 14.1227 11.1079C13.966 10.3753 14.2793 10.1673 14.4893 9.80126C14.698 9.43526 15.064 8.91193 15.534 8.12793C16.0047 7.34393 16.3187 7.70926 16.8933 7.76526C17.4687 7.82193 17.6253 7.70993 18.0433 7.7626C18.46 7.81527 18.0433 7.23993 18.2007 6.66527C18.3567 6.0906 18.932 6.1946 19.508 6.35193C20.0827 6.5086 18.932 5.61927 18.7233 5.14927C18.5133 4.6786 17.9387 5.14927 17.574 4.36527C17.2053 3.58127 16.6913 3.07393 16.2207 3.00393C15.75 2.93327 16.3707 3.99993 16.0047 4.5746C15.6373 5.14927 15.0747 5.05927 14.498 5.05927C13.924 5.05927 13.3907 4.5746 13.8093 3.8426C14.2267 3.11127 15.0247 3.1866 15.4427 2.55927C15.8613 1.9326 13.956 1.98993 13.276 1.78127C12.596 1.57193 11.78 1.57393 11.1007 2.0966C10.4207 2.6186 8.96666 2.78193 8.39132 2.9906C7.81666 3.19927 7.71333 2.64393 7.60933 2.22527C7.56266 2.03927 7.35066 1.9806 7.05199 1.98727C5.57728 2.80459 4.29046 3.92222 3.27466 5.26793C3.43266 5.80593 4.19799 5.14193 4.34799 4.99193C4.50466 4.83527 5.28866 5.0446 5.39266 5.61927C5.49732 6.19393 5.44532 6.8226 5.23666 7.34526C5.02732 7.86726 5.75932 8.59926 6.17732 9.33126C6.59599 10.0639 7.06599 10.0633 7.27532 10.0633C7.48399 10.0633 8.68666 10.5339 8.63399 11.1086C8.58199 11.6839 9.73199 12.2059 10.2027 12.5719C10.6733 12.9393 10.9707 13.2999 11.5813 13.4053C12.1927 13.5106 12.9073 14.5099 13.2207 14.6153C13.4613 14.6953 13.8687 15.0799 14.1147 15.1993C13.7913 15.6086 13.1653 16.4493 13.1653 16.8366C13.1653 17.3606 13.8487 18.1839 14.11 18.3926C14.3707 18.6006 15.1213 18.7593 15.2767 19.2813C15.434 19.8039 15.1673 21.5633 14.698 22.0333C14.226 22.5033 14.0547 23.6146 14.0547 23.6146C14.0547 23.6146 14.2207 23.9753 14.7767 23.6146C15.3913 23.2166 16.4207 22.0833 16.832 21.8366C17.6486 21.3426 18.412 20.7656 19.11 20.1146C19.842 19.4353 19.5767 18.9593 19.9433 18.2813C20.3093 17.6019 20.7827 17.6326 21.4093 17.0593C22.0373 16.4833 21.5987 16.5973 20.9187 16.3353Z" fill="#5C913B"/>
</g>
<defs>
<clipPath id="clip0_59_2457">
<rect width="24" height="24" fill="white" transform="translate(0.832031 0.503265)"/>
</clipPath>
</defs>
</svg>
