<svg width="37" height="37" viewBox="0 0 37 37" fill="none" xmlns="http://www.w3.org/2000/svg">
<g clip-path="url(#clip0_59_1471)">
<path d="M36.0955 18.5602C36.0955 28.5012 28.0365 36.5602 18.0955 36.5602C8.15546 36.5602 0.095459 28.5012 0.095459 18.5602C0.095459 8.62018 8.15546 0.560181 18.0955 0.560181C28.0365 0.560181 36.0955 8.62018 36.0955 18.5602Z" fill="#DA2F47"/>
<path d="M25.5804 30.4392C25.5354 30.2602 24.4124 26.0602 18.0954 26.0602C11.7774 26.0602 10.6554 30.2602 10.6104 30.4392C10.5842 30.5447 10.5931 30.656 10.6359 30.756C10.6787 30.856 10.753 30.9393 10.8474 30.9932C10.9424 31.0465 11.0521 31.0678 11.1602 31.054C11.2683 31.0401 11.369 30.9918 11.4474 30.9162C11.4664 30.8972 13.4014 29.0602 18.0954 29.0602C22.7894 29.0602 24.7254 30.8972 24.7434 30.9152C24.8209 30.9917 24.9211 31.041 25.0289 31.0556C25.1368 31.0702 25.2465 31.0493 25.3414 30.9962C25.4368 30.9423 25.5118 30.8586 25.555 30.758C25.5981 30.6574 25.6071 30.5454 25.5804 30.4392V30.4392ZM15.8024 17.8532C12.5474 14.5982 7.31644 14.5602 7.09544 14.5602C6.83796 14.5716 6.59478 14.6818 6.41656 14.868C6.23834 15.0542 6.1388 15.302 6.13867 15.5597C6.13854 15.8174 6.23783 16.0653 6.41587 16.2517C6.59391 16.438 6.83697 16.5485 7.09444 16.5602C7.12344 16.5602 9.01944 16.5822 11.0774 17.2972C10.4844 17.9372 10.0954 18.9312 10.0954 20.0602C10.0954 21.9942 11.2144 23.5602 12.5954 23.5602C13.9764 23.5602 15.0954 21.9942 15.0954 20.0602C15.0954 19.8862 15.0764 19.7202 15.0584 19.5532C15.0714 19.5532 15.0834 19.5602 15.0954 19.5602C15.2934 19.5606 15.487 19.5022 15.6518 19.3924C15.8165 19.2826 15.9449 19.1264 16.0206 18.9435C16.0964 18.7606 16.1161 18.5593 16.0772 18.3652C16.0384 18.171 15.9427 17.9928 15.8024 17.8532V17.8532ZM29.0954 14.5602C28.8744 14.5602 23.6444 14.5982 20.3884 17.8532C20.2481 17.9928 20.1525 18.171 20.1137 18.3652C20.0748 18.5593 20.0945 18.7606 20.1703 18.9435C20.246 19.1264 20.3744 19.2826 20.5391 19.3924C20.7038 19.5022 20.8975 19.5606 21.0954 19.5602C21.1084 19.5602 21.1194 19.5532 21.1314 19.5532C21.1154 19.7202 21.0954 19.8862 21.0954 20.0602C21.0954 21.9942 22.2144 23.5602 23.5954 23.5602C24.9764 23.5602 26.0954 21.9942 26.0954 20.0602C26.0954 18.9312 25.7064 17.9372 25.1134 17.2972C26.3984 16.8586 27.7406 16.6103 29.0974 16.5602C29.2288 16.56 29.3588 16.5341 29.48 16.4837C29.6013 16.4333 29.7115 16.3595 29.8043 16.2666C29.897 16.1736 29.9706 16.0633 30.0207 15.9419C30.0708 15.8206 30.0966 15.6905 30.0964 15.5592C30.0963 15.4279 30.0703 15.2978 30.0199 15.1766C29.9696 15.0553 29.8958 14.9451 29.8028 14.8524C29.7099 14.7596 29.5996 14.6861 29.4782 14.6359C29.3568 14.5858 29.2268 14.56 29.0954 14.5602V14.5602Z" fill="#292F33"/>
</g>
<defs>
<clipPath id="clip0_59_1471">
<rect width="36" height="36" fill="white" transform="translate(0.095459 0.560181)"/>
</clipPath>
</defs>
</svg>