<svg width="37" height="37" viewBox="0 0 37 37" fill="none" xmlns="http://www.w3.org/2000/svg">
<g clip-path="url(#clip0_59_1466)">
<path d="M18.9495 36.009C28.8906 36.009 36.9495 27.9501 36.9495 18.009C36.9495 8.06785 28.8906 0.00897217 18.9495 0.00897217C9.00834 0.00897217 0.949463 8.06785 0.949463 18.009C0.949463 27.9501 9.00834 36.009 18.9495 36.009Z" fill="#FFCC4D"/>
<path d="M11.4645 23.63C11.5095 23.809 12.6325 28.009 18.9495 28.009C25.2675 28.009 26.3895 23.809 26.4345 23.63C26.4608 23.5244 26.4518 23.4132 26.4091 23.3132C26.3663 23.2132 26.292 23.1299 26.1975 23.076C26.1026 23.0223 25.9928 23.0008 25.8847 23.0147C25.7765 23.0286 25.6758 23.0771 25.5975 23.153C25.5785 23.172 23.6435 25.009 18.9495 25.009C14.2555 25.009 12.3195 23.172 12.3015 23.154C12.2241 23.0775 12.1239 23.0282 12.016 23.0136C11.9082 22.999 11.7985 23.0198 11.7035 23.073C11.6082 23.1268 11.5332 23.2105 11.49 23.3111C11.4468 23.4118 11.4378 23.5238 11.4645 23.63V23.63Z" fill="#664500"/>
<path d="M12.9495 17.009C14.3302 17.009 15.4495 15.442 15.4495 13.509C15.4495 11.576 14.3302 10.009 12.9495 10.009C11.5688 10.009 10.4495 11.576 10.4495 13.509C10.4495 15.442 11.5688 17.009 12.9495 17.009Z" fill="#664500"/>
<path d="M24.9495 17.009C26.3302 17.009 27.4495 15.442 27.4495 13.509C27.4495 11.576 26.3302 10.009 24.9495 10.009C23.5688 10.009 22.4495 11.576 22.4495 13.509C22.4495 15.442 23.5688 17.009 24.9495 17.009Z" fill="#664500"/>
</g>
<defs>
<clipPath id="clip0_59_1466">
<rect width="36" height="36" fill="white" transform="translate(0.949463 0.00897217)"/>
</clipPath>
</defs>
</svg>