<svg width="37" height="37" viewBox="0 0 37 37" fill="none" xmlns="http://www.w3.org/2000/svg">
<g clip-path="url(#clip0_59_1461)">
<path d="M36.6702 18.5602C36.6702 28.5012 28.6112 36.5602 18.6702 36.5602C8.73017 36.5602 0.670166 28.5012 0.670166 18.5602C0.670166 8.62018 8.73017 0.560181 18.6702 0.560181C28.6112 0.560181 36.6702 8.62018 36.6702 18.5602Z" fill="#FFCC4D"/>
<path d="M16.6702 18.5602C16.2512 18.5602 15.8612 18.2952 15.7212 17.8762C15.5182 17.2772 14.7042 15.5602 13.6702 15.5602C12.6082 15.5602 11.7822 17.3872 11.6192 17.8762C11.5789 18.0024 11.514 18.1193 11.4282 18.2202C11.3424 18.321 11.2374 18.4039 11.1193 18.4638C11.0012 18.5238 10.8724 18.5597 10.7403 18.5695C10.6083 18.5793 10.4756 18.5628 10.3499 18.5208C10.2243 18.4789 10.1083 18.4125 10.0085 18.3253C9.9088 18.2382 9.82737 18.1321 9.76896 18.0132C9.71056 17.8944 9.67635 17.7651 9.66831 17.6329C9.66028 17.5007 9.67859 17.3682 9.72217 17.2432C9.84717 16.8672 11.0262 13.5602 13.6702 13.5602C16.3142 13.5602 17.4932 16.8672 17.6192 17.2442C17.6692 17.3945 17.6829 17.5546 17.6589 17.7112C17.635 17.8679 17.5742 18.0166 17.4815 18.1451C17.3888 18.2736 17.2669 18.3783 17.1259 18.4504C16.9848 18.5226 16.8286 18.5602 16.6702 18.5602V18.5602ZM26.6702 18.5602C26.4603 18.5602 26.2558 18.4941 26.0857 18.3713C25.9155 18.2485 25.7883 18.0753 25.7222 17.8762C25.5192 17.2772 24.7032 15.5602 23.6702 15.5602C22.6082 15.5602 21.7812 17.3872 21.6182 17.8762C21.5316 18.1245 21.3508 18.3287 21.1149 18.4446C20.8789 18.5606 20.6067 18.5789 20.3573 18.4957C20.1079 18.4125 19.9013 18.2344 19.7823 18C19.6632 17.7655 19.6413 17.4937 19.7212 17.2432C19.8472 16.8672 21.0252 13.5602 23.6702 13.5602C26.3152 13.5602 27.4932 16.8672 27.6182 17.2442C27.6682 17.3944 27.6819 17.5544 27.658 17.711C27.6341 17.8675 27.5734 18.0162 27.4808 18.1447C27.3882 18.2732 27.2665 18.3779 27.1255 18.4501C26.9846 18.5223 26.8285 18.5601 26.6702 18.5602V18.5602ZM18.6702 22.5602C15.0472 22.5602 12.6432 22.1382 9.67017 21.5602C8.99117 21.4292 7.67017 21.5602 7.67017 23.5602C7.67017 27.5602 12.2652 32.5602 18.6702 32.5602C25.0742 32.5602 29.6702 27.5602 29.6702 23.5602C29.6702 21.5602 28.3492 21.4282 27.6702 21.5602C24.6972 22.1382 22.2932 22.5602 18.6702 22.5602Z" fill="#664500"/>
<path d="M9.67017 23.5602C9.67017 23.5602 12.6702 24.5602 18.6702 24.5602C24.6702 24.5602 27.6702 23.5602 27.6702 23.5602C27.6702 23.5602 26.3262 30.3102 18.6702 30.3102C11.0142 30.3102 9.67017 23.5602 9.67017 23.5602Z" fill="white"/>
<path d="M18.6702 28.1542C15.0742 28.1542 12.3982 27.7822 10.7332 27.4092L9.9082 25.5382C10.7312 25.8502 13.7972 26.4352 18.6712 26.4352C23.6252 26.4352 26.7082 25.8192 27.5352 25.4972L26.8342 27.3392C25.2002 27.7192 22.4152 28.1542 18.6702 28.1542Z" fill="#664500"/>
</g>
<defs>
<clipPath id="clip0_59_1461">
<rect width="36" height="36" fill="white" transform="translate(0.670166 0.560181)"/>
</clipPath>
</defs>
</svg>